# xmcd
#
# Track frame offsets: 
#        150
#        13210
#        33347
#        48649
#        64289
#        82319
#        94994
#        115034
#        132089
#        148557
#        163997
#
# Disc length: 2410 seconds
#
# Revision: 0
# Processed by: cddbd v1.5.2PL0 Copyright (c) Steve Scherf et al.
# Submitted via: ExactAudioCopy v0.99pb5
#
DISCID=a009680b
DTITLE=Alison Krauss - Forget About It
DYEAR=1900
DGENRE=Bluegrass
TTITLE0=Stay
TTITLE1=Forget About It
TTITLE2=It Wouldn't Have Made Any Difference
TTITLE3=Maybe
TTITLE4=Empty Hearts
TTITLE5=Never Got Off The Ground
TTITLE6=Ghost In This House
TTITLE7=It Don't Matter Now
TTITLE8=That Kind Of Love
TTITLE9=Could You Lie
TTITLE10=Dreaming My Dreams With You
EXTD=
EXTT0=
EXTT1=
EXTT2=
EXTT3=
EXTT4=
EXTT5=
EXTT6=
EXTT7=
EXTT8=
EXTT9=
EXTT10=
PLAYORDER=
